<svg
              width="5"
              height="8"
              viewBox="0 0 5 8"
              fill="none"
              xmlns="http://www.w3.org/2000/svg"
            >
              <path
                fill-rule="evenodd"
                clip-rule="evenodd"
                d="M4.80911 3.5678C4.93134 3.68048 5 3.83329 5 3.99262C5 4.15195 4.93134 4.30475 4.80911 4.41743L1.12092 7.81656C1.06078 7.87395 0.98884 7.91973 0.909297 7.95122C0.829754 7.98271 0.744203 7.99928 0.657634 7.99998C0.571066 8.00067 0.485216 7.98547 0.405091 7.95525C0.324966 7.92504 0.252172 7.88043 0.190957 7.82401C0.129742 7.76759 0.0813313 7.7005 0.0485497 7.62666C0.0157681 7.55281 -0.000727607 7.47369 2.48485e-05 7.39391C0.000776828 7.31412 0.0187622 7.23528 0.0529314 7.16197C0.0871006 7.08866 0.136769 7.02236 0.199039 6.96693L3.42629 3.99262L0.199039 1.0183C0.0802776 0.904977 0.0145628 0.753196 0.0160481 0.59565C0.0175335 0.438103 0.0861003 0.287397 0.206981 0.175991C0.327861 0.0645843 0.491383 0.00139102 0.662328 2.20321e-05C0.833272 -0.00134695 0.997961 0.0592171 1.12092 0.168671L4.80911 3.5678Z"
                fill="#333333"
              />
            </svg>