<svg xmlns="http://www.w3.org/2000/svg" width="48" height="38" viewBox="0 0 48 38" fill="none">
<path d="M22.8 8.85019C22.8 14.0502 20.85 19.2002 16.9499 24.3002C13.0499 29.5002 7.64995 33.8002 0.74995 37.2002L-5.32222e-05 35.1002C4.69995 32.2002 8.44995 29.0502 11.25 25.6502C14.05 22.2502 15.6 18.8502 15.9 15.4502C14.6999 16.4502 13.45 17.3002 12.1499 18.0002C10.85 18.8002 9.49995 19.2002 8.09995 19.2002C5.29995 19.2002 3.89995 17.4502 3.89995 13.9502C3.89995 11.7502 4.49995 9.60019 5.69995 7.50019C6.89995 5.40019 8.44995 3.60019 10.35 2.10019C12.25 0.700192 14.2 0.000191621 16.2 0.000191796C18.5 0.000191997 20.2 0.800191 21.3 2.40019C22.3 4.00019 22.8 6.15019 22.8 8.85019ZM47.7 8.85019C47.7 14.0502 45.75 19.2002 41.85 24.3002C37.95 29.5002 32.5499 33.8002 25.6499 37.2002L24.8999 35.1002C29.5999 32.2002 33.35 29.0502 36.15 25.6502C38.95 22.2502 40.5 18.8502 40.8 15.4502C39.6 16.4502 38.35 17.3002 37.05 18.0002C35.75 18.8002 34.4 19.2002 33 19.2002C30.2 19.2002 28.8 17.4502 28.8 13.9502C28.8 11.7502 29.4 9.60019 30.6 7.50019C31.8 5.40019 33.35 3.6002 35.25 2.1002C37.15 0.700194 39.1 0.000193798 41.1 0.000193973C43.4 0.000194174 45.1 0.800194 46.2 2.40019C47.2 4.00019 47.7 6.15019 47.7 8.85019Z" fill="white"/>
</svg>