<svg xmlns="http://www.w3.org/2000/svg" width="48" height="38" viewBox="0 0 48 38" fill="none">
<path d="M24.9 28.35C24.9 23.15 26.85 18 30.75 12.9C34.65 7.7 40.05 3.4 46.95 0L47.7 2.1C43 5 39.25 8.15 36.45 11.55C33.65 14.95 32.1 18.35 31.8 21.75C33 20.75 34.25 19.9 35.55 19.2C36.85 18.4 38.2 18 39.6 18C42.4 18 43.8 19.75 43.8 23.25C43.8 25.45 43.2 27.6 42 29.7C40.8 31.8 39.25 33.6 37.35 35.1C35.45 36.5 33.5 37.2 31.5 37.2C29.2 37.2 27.5 36.4 26.4 34.8C25.4 33.2 24.9 31.05 24.9 28.35ZM0 28.35C0 23.15 1.95 18 5.85 12.9C9.75 7.7 15.15 3.4 22.05 0L22.8 2.1C18.1 5 14.35 8.15 11.55 11.55C8.75 14.95 7.2 18.35 6.9 21.75C8.1 20.75 9.35 19.9 10.65 19.2C11.95 18.4 13.3 18 14.7 18C17.5 18 18.9 19.75 18.9 23.25C18.9 25.45 18.3 27.6 17.1 29.7C15.9 31.8 14.35 33.6 12.45 35.1C10.55 36.5 8.6 37.2 6.6 37.2C4.3 37.2 2.6 36.4 1.5 34.8C0.5 33.2 0 31.05 0 28.35Z" fill="white"/>
</svg>