<svg xmlns="http://www.w3.org/2000/svg" width="35" height="25" viewBox="0 0 35 25" fill="none">
<path d="M34.582 1.85604C34.582 0.916458 33.8201 0.15625 32.8822 0.15625H19.1985C18.7477 0.15625 18.3153 0.335334 17.9966 0.654107C17.6778 0.97288 17.4987 1.40523 17.4987 1.85604C17.4987 2.30685 17.6778 2.7392 17.9966 3.05798C18.3153 3.37675 18.7477 3.55583 19.1985 3.55583H32.8822C33.3331 3.55583 33.7654 3.37675 34.0842 3.05798C34.4029 2.7392 34.582 2.30685 34.582 1.85604ZM34.582 12.1146C34.582 11.175 33.8201 10.4148 32.8822 10.4148H2.11516C1.66434 10.4148 1.23199 10.5939 0.913223 10.9126C0.594448 11.2314 0.415363 11.6638 0.415363 12.1146C0.415363 12.5654 0.594448 12.9977 0.913223 13.3165C1.23199 13.6353 1.66434 13.8144 2.11516 13.8144H32.8822C33.3331 13.8144 33.7654 13.6353 34.0842 13.3165C34.4029 12.9977 34.582 12.5654 34.582 12.1146ZM32.8822 20.6733C33.3331 20.6733 33.7654 20.8524 34.0842 21.1712C34.4029 21.49 34.582 21.9223 34.582 22.3731C34.582 22.8239 34.4029 23.2563 34.0842 23.5751C33.7654 23.8938 33.3331 24.0729 32.8822 24.0729H12.3652C11.9143 24.0729 11.482 23.8938 11.1632 23.5751C10.8444 23.2563 10.6654 22.8239 10.6654 22.3731C10.6654 21.9223 10.8444 21.49 11.1632 21.1712C11.482 20.8524 11.9143 20.6733 12.3652 20.6733H32.8822Z" fill="#0C0C0C"/>
</svg>