<svg width="36" height="37" viewBox="0 0 36 37" fill="none" xmlns="http://www.w3.org/2000/svg">
<path d="M2.0025 0.539062H34.02C35.1225 0.539062 36 1.41709 36 2.52025V34.5795C36 35.6602 35.1225 36.5607 34.02 36.5607H24.84V22.6023H29.52L30.2175 17.1766H24.84V13.7095C24.84 12.1335 25.29 11.0529 27.54 11.0529H30.42V6.18996C29.925 6.12242 28.215 5.98734 26.235 5.98734C22.0725 5.98734 19.2375 8.50885 19.2375 13.1692V17.1766H14.535V22.6023H19.2375V36.5607H2.0025C1.47528 36.5607 0.969316 36.3527 0.594415 35.9818C0.219513 35.6109 0.00592383 35.107 0 34.5795V2.52025C0 1.41709 0.9 0.539062 2.0025 0.539062Z" fill="#007DCD"/>
</svg>
