<svg width="36" height="37" viewBox="0 0 36 37" fill="none" xmlns="http://www.w3.org/2000/svg">
<path d="M0 3.11911C0 1.69401 1.1835 0.539062 2.64375 0.539062H33.3563C34.8165 0.539062 36 1.69401 36 3.11911V33.9807C36 35.4058 34.8165 36.5607 33.3563 36.5607H2.64375C1.1835 36.5607 0 35.4058 0 33.9807V3.11911ZM11.1217 30.6937V14.4277H5.7195V30.6937H11.1217ZM8.42175 12.2056C10.305 12.2056 11.4772 10.9583 11.4772 9.39589C11.4435 7.79968 10.3073 6.5862 8.45775 6.5862C6.60825 6.5862 5.4 7.80193 5.4 9.39589C5.4 10.9583 6.57225 12.2056 8.38575 12.2056H8.42175ZM19.4648 30.6937V21.6095C19.4648 21.1232 19.5007 20.6369 19.6448 20.2902C20.034 19.3198 20.9228 18.3135 22.4167 18.3135C24.372 18.3135 25.1528 19.8039 25.1528 21.9922V30.6937H30.555V21.3641C30.555 16.3661 27.891 14.0427 24.336 14.0427C21.4695 14.0427 20.1847 15.6186 19.4648 16.7285V16.7848H19.4288C19.4407 16.766 19.4527 16.7473 19.4648 16.7285V14.4277H14.0647C14.1322 15.9541 14.0647 30.6937 14.0647 30.6937H19.4648Z" fill="#007DCD"/>
</svg>
