<svg width="236" height="51" viewBox="0 0 236 51" fill="none" xmlns="http://www.w3.org/2000/svg">
<g clip-path="url(#clip0_424_441)">
<path d="M79.9537 34.3267H65.5821C64.3714 34.3358 63.1718 34.1 62.0585 33.6339C59.8987 32.7454 58.1807 31.0628 57.2736 28.9473C56.804 27.8548 56.562 26.6813 56.562 25.4959C56.562 24.3105 56.804 23.1371 57.2736 22.0446C57.7242 20.9987 58.3767 20.0479 59.1952 19.2443C60.0189 18.4434 60.9906 17.8032 62.0585 17.3579C63.1724 16.8948 64.372 16.6618 65.5821 16.6735H79.7236C80.9344 16.6644 82.134 16.9002 83.2473 17.3663C84.3152 17.8116 85.2869 18.4517 86.1105 19.2526C86.9291 20.0562 87.5816 21.0071 88.0321 22.0529C88.5085 23.1434 88.7507 24.3182 88.7437 25.5043V34.3267H83.2473V25.4959C83.2484 25.0424 83.158 24.5931 82.9814 24.1739C82.8047 23.7546 82.5452 23.3737 82.2177 23.053C81.8903 22.7323 81.5014 22.4781 81.0734 22.3051C80.6454 22.132 80.1867 22.0435 79.7236 22.0446H65.5821C65.1194 22.0446 64.6612 22.1339 64.2337 22.3073C63.8062 22.4808 63.4177 22.735 63.0905 23.0555C62.7633 23.376 62.5038 23.7564 62.3267 24.1752C62.1496 24.5939 62.0585 25.0427 62.0585 25.4959C62.0585 25.9492 62.1496 26.398 62.3267 26.8167C62.5038 27.2354 62.7633 27.6159 63.0905 27.9364C63.4177 28.2569 63.8062 28.5111 64.2337 28.6846C64.6612 28.858 65.1194 28.9473 65.5821 28.9473H79.9537V34.3267Z" fill="#007DCD"/>
<path d="M95.5623 16.6731L104.851 29.0472C105.006 29.2943 105.222 29.4978 105.478 29.639C105.733 29.7801 106.021 29.8541 106.313 29.8541C106.605 29.8541 106.892 29.7801 107.147 29.639C107.403 29.4978 107.619 29.2943 107.774 29.0472L117.041 16.6731H123.851L112.192 32.3415C111.497 33.2903 110.581 34.0551 109.523 34.5693C108.526 35.0552 107.431 35.3077 106.321 35.3077C105.212 35.3077 104.117 35.0552 103.119 34.5693C102.063 34.055 101.148 33.2902 100.455 32.3415L88.7438 16.6731H95.5623Z" fill="#007DCD"/>
<path d="M121.901 34.3269V25.496C121.894 24.31 122.144 23.1351 122.637 22.0446C123.103 20.9988 123.778 20.0479 124.624 19.2443C125.475 18.4444 126.479 17.8043 127.581 17.3579C128.735 16.8951 129.977 16.6621 131.23 16.6735H141.405V22.053H131.23C130.751 22.0519 130.276 22.1404 129.833 22.3134C129.39 22.4864 128.988 22.7405 128.649 23.0612C128.31 23.3818 128.041 23.7627 127.858 24.182C127.675 24.6012 127.581 25.0506 127.581 25.5044V34.3269H121.901Z" fill="#007DCD"/>
<path d="M151.389 34.3185C150.179 34.3258 148.98 34.0887 147.868 33.622C145.71 32.7341 143.993 31.0526 143.087 28.9386C142.62 27.8462 142.38 26.6739 142.38 25.4897C142.38 24.3056 142.62 23.1332 143.087 22.0408C143.993 19.9268 145.71 18.2453 147.868 17.3574C148.981 16.8949 150.18 16.6621 151.389 16.6735H166.528C167.738 16.6652 168.937 16.9009 170.049 17.3658C172.207 18.2536 173.924 19.9351 174.83 22.0491C175.297 23.1416 175.537 24.3139 175.537 25.4981C175.537 26.6822 175.297 27.8546 174.83 28.947C173.924 31.061 172.207 32.7425 170.049 33.6303C168.937 34.0966 167.738 34.3336 166.528 34.3268L151.389 34.3185ZM151.389 22.0408C150.927 22.0408 150.469 22.13 150.042 22.3033C149.614 22.4767 149.226 22.7307 148.899 23.051C148.572 23.3712 148.313 23.7514 148.136 24.1699C147.959 24.5883 147.868 25.0368 147.868 25.4897C147.868 25.9426 147.959 26.3911 148.136 26.8096C148.313 27.228 148.572 27.6082 148.899 27.9285C149.226 28.2487 149.614 28.5028 150.042 28.6761C150.469 28.8494 150.927 28.9386 151.389 28.9386H166.528C166.991 28.9386 167.449 28.8494 167.876 28.6761C168.303 28.5028 168.691 28.2487 169.018 27.9285C169.345 27.6082 169.604 27.228 169.781 26.8096C169.958 26.3911 170.049 25.9426 170.049 25.4897C170.049 25.0368 169.958 24.5883 169.781 24.1699C169.604 23.7514 169.345 23.3712 169.018 23.051C168.691 22.7307 168.303 22.4767 167.876 22.3033C167.449 22.13 166.991 22.0408 166.528 22.0408H151.389Z" fill="#007DCD"/>
<path d="M177.488 34.3269V25.4961C177.481 24.31 177.731 23.1352 178.224 22.0447C178.69 20.9988 179.364 20.0479 180.211 19.2443C181.063 18.4434 182.068 17.8032 183.172 17.358C184.324 16.8948 185.565 16.6618 186.817 16.6735H196.992V22.053H186.817C186.338 22.0519 185.863 22.1404 185.421 22.3135C184.978 22.4866 184.576 22.7407 184.237 23.0614C183.899 23.3822 183.63 23.7631 183.447 24.1823C183.265 24.6016 183.171 25.0509 183.172 25.5044V34.3269H177.488Z" fill="#007DCD"/>
<path d="M221.362 34.3267H206.984C205.773 34.335 204.574 34.0992 203.46 33.634C201.301 32.7446 199.585 31.062 198.679 28.9473C198.209 27.8548 197.967 26.6813 197.967 25.4959C197.967 24.3105 198.209 23.1371 198.679 22.0446C199.588 19.9316 201.303 18.2499 203.46 17.3579C204.574 16.8955 205.774 16.6625 206.984 16.6735H221.132C222.342 16.6647 223.542 16.9005 224.656 17.3662C226.812 18.2596 228.529 19.9407 229.441 22.0529C229.916 23.1437 230.157 24.3185 230.149 25.5043V34.3267H224.656V25.4959C224.656 25.0425 224.565 24.5935 224.389 24.1745C224.212 23.7555 223.952 23.3748 223.625 23.0542C223.297 22.7336 222.909 22.4794 222.481 22.3062C222.053 22.1329 221.595 22.044 221.132 22.0446H206.984C206.521 22.0446 206.063 22.1338 205.635 22.3073C205.208 22.4807 204.819 22.735 204.492 23.0554C204.165 23.3759 203.905 23.7564 203.728 24.1751C203.551 24.5939 203.46 25.0427 203.46 25.4959C203.46 25.9492 203.551 26.398 203.728 26.8167C203.905 27.2354 204.165 27.6159 204.492 27.9364C204.819 28.2569 205.208 28.5111 205.635 28.6846C206.063 28.858 206.521 28.9473 206.984 28.9473H221.362V34.3267Z" fill="#007DCD"/>
<path fill-rule="evenodd" clip-rule="evenodd" d="M39.7147 32.5787L27.1186 16.0234C27.0029 15.8724 26.8499 15.7546 26.6749 15.6819C26.4999 15.6092 26.3091 15.5841 26.1214 15.6091C25.9338 15.6341 25.7559 15.7083 25.6056 15.8243C25.4554 15.9404 25.3379 16.0941 25.2651 16.2702L17.3466 35.5436C17.2738 35.72 17.2483 35.9126 17.2728 36.102C17.2974 36.2915 17.3709 36.471 17.4862 36.6227C17.6014 36.7743 17.7542 36.8927 17.9293 36.9658C18.1043 37.039 18.2954 37.0643 18.4832 37.0393L39.0007 34.3183C39.1883 34.2933 39.366 34.2189 39.5161 34.1027C39.6661 33.9865 39.7832 33.8325 39.8555 33.6562C39.9279 33.48 39.953 33.2876 39.9283 33.0985C39.9035 32.9093 39.8299 32.7301 39.7147 32.5787Z" fill="#007DCD"/>
<path d="M50.399 45.1583L48.9039 39.8867C48.6738 40.4354 48.3074 40.915 47.8401 41.2796C46.6423 42.2786 44.6926 42.07 43.76 42.07C43.247 42.07 12.1852 39.299 12.1852 39.299C12.6893 39.299 10.0081 39.2461 9.95562 38.203C9.94989 37.8463 9.99205 37.4904 10.0809 37.1451C10.0809 37.1451 8.43721 39.0904 9.7895 40.7271C10.6638 41.7879 47.0095 50.9265 47.0095 50.9265C47.0095 50.9265 49.0496 51.4613 50.2824 49.6395C50.2923 49.6245 50.301 49.6088 50.3087 49.5925C50.8099 48.6727 51.0373 47.6443 50.3903 45.1583" fill="#007DCD"/>
<path fill-rule="evenodd" clip-rule="evenodd" d="M1.45712 33.763C0.963901 34.2675 0.568527 34.8604 0.29135 35.5114C-0.0146637 36.2607 -0.192443 37.2098 0.305922 38.0032L0.337981 38.0502C0.617744 38.4862 0.982746 38.8601 1.41068 39.1491C1.83862 39.4381 2.3205 39.6361 2.82689 39.731L9.09872 40.8623C8.55372 40.4245 8.26228 39.3431 8.6907 38.0179C9.39016 35.861 29.0188 7.22862 29.0188 7.22862L33.2214 0C31.4727 0.728739 1.4542 33.763 1.4542 33.763" fill="#007DCD"/>
<path fill-rule="evenodd" clip-rule="evenodd" d="M9.50098 38.87C9.50098 38.9053 9.79242 39.0257 9.80991 39.0639C9.80991 39.0257 9.51846 38.9082 9.50098 38.87Z" fill="#007DCD"/>
<path fill-rule="evenodd" clip-rule="evenodd" d="M48.3298 37.968C47.0008 33.5603 35.588 2.0511 35.3606 1.42521C35.3023 1.26653 34.9905 0.185174 34.0404 0.105835L29.8116 7.4755C30.6335 7.85457 31.2163 8.47458 32.0936 10.317C34.1337 14.5954 42.4572 30.0958 45.5494 36.869C46.3684 38.6556 47.4613 40.7477 44.9899 41.2767C44.5585 41.3678 44.3924 41.3825 44.1359 41.4265C47.4904 41.8585 48.3269 39.5547 48.56 38.9259L48.3298 37.968Z" fill="#007DCD"/>
</g>
<defs>
<clipPath id="clip0_424_441">
<rect width="236" height="51" fill="white"/>
</clipPath>
</defs>
</svg>
