<svg width="36" height="37" viewBox="0 0 36 37" fill="none" xmlns="http://www.w3.org/2000/svg">
<path d="M36 4.39852V32.7012C36 34.832 34.2723 36.5607 32.1429 36.5607H12.4071C13.1946 35.2421 14.2071 33.3445 14.6089 31.7927C14.85 30.868 15.8384 27.097 15.8384 27.097C16.4813 28.3272 18.3616 29.3644 20.3625 29.3644C26.317 29.3644 30.6 23.8888 30.6 17.0865C30.6 10.5656 25.2804 5.68501 18.4339 5.68501C9.91607 5.68501 5.4 11.4018 5.4 17.6333C5.4 20.5279 6.94286 24.13 9.40179 25.2798C9.77946 25.4567 9.97232 25.3763 10.0607 25.0145C10.125 24.7411 10.4625 23.3983 10.6071 22.7792C10.6554 22.5782 10.6313 22.4093 10.4705 22.2164C9.65893 21.2274 9 19.4102 9 17.7137C9 13.3557 12.2946 9.14245 17.9116 9.14245C22.7571 9.14245 26.1562 12.4471 26.1562 17.175C26.1562 22.5139 23.4643 26.2125 19.9527 26.2125C18.0161 26.2125 16.5696 24.6125 17.0277 22.6425C17.5821 20.2947 18.6589 17.7619 18.6589 16.0654C18.6589 11.8039 12.592 12.3908 12.592 18.0755C12.592 19.8203 13.1786 21.0103 13.1786 21.0103C10.6554 31.6881 10.2777 31.8248 10.8 36.4964L10.9768 36.5607H3.85714C1.72768 36.5607 0 34.832 0 32.7012V4.39852C0 2.26778 1.72768 0.539062 3.85714 0.539062H32.1429C34.2723 0.539062 36 2.26778 36 4.39852Z" fill="#007DCD"/>
</svg>
