<svg xmlns="http://www.w3.org/2000/svg" width="166" height="82" viewBox="0 0 166 82" fill="none">
<path fill-rule="evenodd" clip-rule="evenodd" d="M163.975 1.79716C162.817 0.254609 161.006 1.24772 159.911 2.28312C156.068 6.16185 152.428 10.2386 149.006 14.4967C143.841 20.6106 138.928 26.9498 134.268 33.5145C134.157 33.2948 134.059 33.0691 133.974 32.8383C133.962 32.7904 133.938 32.7464 133.904 32.711C133.87 32.6756 133.827 32.6501 133.779 32.6372C133.732 32.6242 133.682 32.6243 133.635 32.6374C133.587 32.6505 133.544 32.6761 133.51 32.7115C132.26 34.4817 130.517 35.8416 128.5 36.6207C126.394 37.149 123.784 36.0079 123.784 33.6413C123.784 33.5919 123.771 33.5434 123.746 33.5009C123.721 33.4584 123.685 33.4234 123.642 33.3996C123.599 33.3758 123.55 33.3641 123.501 33.3657C123.452 33.3674 123.404 33.3822 123.363 33.4088C121.291 34.9927 119.044 36.3328 116.668 37.4026L115.973 34.8669C115.962 34.8189 115.937 34.775 115.903 34.7396C115.869 34.7042 115.826 34.6787 115.779 34.6657C115.731 34.6528 115.681 34.6528 115.634 34.6659C115.587 34.679 115.544 34.7046 115.51 34.7401C113.602 36.7867 111.157 38.2515 108.457 38.9662C107.214 39.4293 105.88 39.5957 104.562 39.4523C103.72 39.1776 103.93 35.7755 103.867 34.888C103.868 34.8283 103.848 34.7701 103.813 34.7223C103.777 34.6744 103.727 34.6395 103.67 34.6228C103.613 34.6061 103.552 34.6084 103.497 34.6296C103.441 34.6508 103.394 34.6896 103.362 34.7401C100.648 38.6362 96.7356 41.5312 92.2247 42.9811C92.5194 40.1073 92.8142 37.2546 93.13 34.402C93.13 34.1484 92.8142 34.0639 92.6668 34.2118L79.34 45.8337C79.307 44.0637 79.7177 42.3136 80.5344 40.7444C81.351 39.1752 82.5476 37.8372 84.0139 36.8532C84.0781 36.8167 84.1252 36.7562 84.145 36.6848C84.1647 36.6135 84.1554 36.5373 84.1191 36.4728C84.0828 36.4084 84.0225 36.361 83.9514 36.3412C83.8804 36.3214 83.8044 36.3307 83.7402 36.3671L81.2138 37.5294C83.2108 33.0273 84.9265 28.4048 86.3508 23.6886C87.7304 19.3822 88.3989 14.8782 88.3298 10.3551C88.4328 8.49595 88.1086 6.63791 87.3824 4.92448C86.9802 4.34273 86.4166 3.89244 85.7616 3.62947C85.1066 3.36649 84.389 3.30247 83.698 3.44536C80.0884 4.05861 76.7122 5.64333 73.9293 8.03071C70.6489 10.7877 67.5674 13.7746 64.7079 16.9691C60.8762 20.9276 57.1708 24.9988 53.5917 29.1827C54.4626 25.9658 54.6065 22.5943 54.0128 19.3145C53.8153 18.43 53.4432 17.5943 52.9184 16.8565C52.3937 16.1188 51.7269 15.4941 50.9576 15.0194C50.1882 14.5447 49.3319 14.2295 48.4391 14.0925C47.5464 13.9556 46.6353 13.9997 45.7598 14.2221C41.2333 15.0673 38.2437 19.1455 35.4858 22.4842C28.468 30.9365 21.6747 39.6002 15.1061 48.4751C11.2804 53.2592 7.76426 58.2845 4.57937 63.5202C2.03191 68.0845 0.368695 73.3038 1.82138 78.502C1.92665 78.84 2.45298 78.6921 2.34772 78.354C-0.494495 68.6973 7.63212 59.5265 12.8744 52.342C18.9659 44.0728 25.2327 35.9515 31.6751 27.9782C33.2752 25.9919 34.8752 24.0268 36.5173 22.0616C37.8528 20.3266 39.3394 18.7143 40.9596 17.2438C44.4124 14.3489 50.6653 13.0176 52.918 18.089C54.497 21.6601 53.5496 26.2244 52.7074 29.9856C50.6021 32.4579 48.4968 34.9514 46.5599 37.5082C43.8229 40.9737 41.1702 44.4955 38.6017 48.0736C35.8308 51.4782 33.5228 55.2371 31.7383 59.2518C31.0432 61.0758 30.854 63.0549 31.1908 64.9783C31.1908 65.1896 31.5066 65.2107 31.654 65.0839C38.7644 59.4366 44.5202 52.2586 48.4967 44.0799C50.4463 40.0299 51.9499 35.7786 52.9811 31.4014C52.9811 30.9788 53.1706 30.5562 53.2759 30.1124C55.2339 27.8092 57.2129 25.527 59.234 23.3083C62.0341 20.2232 64.8974 17.2226 67.8238 14.2643C70.4923 11.4047 73.4644 8.84676 76.6873 6.63607C79.2347 5.00899 86.1192 1.35341 87.3824 6.1501C88.2504 10.543 88.0918 15.078 86.9192 19.3991C85.4368 25.7115 83.3207 31.8567 80.6032 37.7406C67.5484 44.1294 56.1965 53.5457 47.4862 65.2107C44.987 68.2363 42.866 71.5574 41.1702 75.0999C40.1386 77.5722 40.4333 80.8686 43.8019 80.8475C45.5606 80.7029 47.2756 80.2223 48.8547 79.4317C50.5387 78.7118 52.1586 77.8493 53.6969 76.8538C56.8029 74.7866 59.6329 72.3297 62.1183 69.5425C67.4438 63.3317 71.9707 56.4739 75.5925 49.1301C77.4663 45.559 79.2768 41.8823 80.94 38.1421L82.119 37.5716C80.9913 38.6979 80.1182 40.0545 79.5588 41.5494C78.9994 43.0442 78.7668 44.6423 78.8769 46.2352C78.8742 46.2902 78.888 46.3447 78.9166 46.3917C78.9451 46.4387 78.9871 46.476 79.037 46.4987C79.0869 46.5215 79.1424 46.5287 79.1964 46.5194C79.2505 46.5101 79.3005 46.4847 79.34 46.4466L92.5826 34.888L91.6984 43.1924C91.6972 43.2345 91.7057 43.2763 91.7232 43.3145C91.7407 43.3528 91.7668 43.3865 91.7994 43.413C91.8319 43.4396 91.8701 43.4582 91.911 43.4676C91.9519 43.477 91.9944 43.4768 92.0352 43.4671C96.5956 42.1052 100.597 39.3042 103.446 35.4797C103.446 36.832 103.615 38.1844 103.72 39.5367C103.72 39.6096 103.749 39.6795 103.8 39.731C103.851 39.7825 103.921 39.8115 103.994 39.8115C106.142 39.9065 108.287 39.5517 110.291 38.7696C112.296 37.9874 114.116 36.795 115.636 35.2683L116.289 37.6772C116.302 37.7161 116.323 37.7516 116.352 37.781C116.38 37.8105 116.415 37.8331 116.453 37.8473C116.492 37.8615 116.533 37.8668 116.574 37.863C116.614 37.8592 116.654 37.8462 116.689 37.8252C119.048 36.7991 121.281 35.5014 123.342 33.9582C123.541 34.8473 124.035 35.6424 124.742 36.2141C125.449 36.7858 126.328 37.1004 127.237 37.1067C129.931 37.2758 132.037 35.0993 133.7 33.2187C133.7 33.4088 133.889 33.599 133.995 33.7892C132.479 35.9022 130.963 38.121 129.489 40.3397C122.591 50.6776 116.347 61.4403 110.794 72.5642C110.646 72.8812 111.11 73.1559 111.278 72.8389C117.997 59.3919 125.74 46.4851 134.437 34.233C135.409 35.0651 136.575 35.6371 137.826 35.8957C139.078 36.1543 140.374 36.0911 141.595 35.7121C145.723 34.6385 149.535 32.5879 152.711 29.7321C159.438 24.0844 163.706 16.0261 164.606 7.27003C164.648 5.72748 165.048 3.25518 163.975 1.79716ZM48.5389 42.6853C44.6762 51.1493 38.911 58.5992 31.6962 64.45C31.1277 60.0759 33.8015 56.1667 36.1384 52.7224C38.4753 49.2781 40.8965 45.8971 43.3808 42.5796C46.3002 38.6915 49.3319 34.888 52.4759 31.169C51.5638 35.134 50.2444 38.9935 48.5389 42.6853ZM77.74 43.7629C74.4618 50.7776 70.5729 57.4881 66.1185 63.8161C62.0907 69.7656 56.725 74.6805 50.4548 78.1639C48.8621 78.9921 47.1904 79.6576 45.465 80.1502C44.9426 80.3739 44.3805 80.4893 43.8124 80.4893C43.2444 80.4893 42.6822 80.3739 42.1597 80.1502C41.632 79.7476 41.2526 79.1804 41.0811 78.5378C40.9097 77.8952 40.9558 77.2136 41.2123 76.6002C41.7759 74.9175 42.6001 73.3344 43.6545 71.9092C44.644 70.3032 45.7598 68.7395 46.7704 67.2181C55.4253 55.1053 66.9038 45.304 80.2032 38.6704C79.4452 40.382 78.54 42.0724 77.74 43.7629ZM162.564 14.1798C161.247 18.1828 159.206 21.9077 156.543 25.1678C153.606 28.7221 149.945 31.6041 145.806 33.6201C142.963 35.0148 136.984 37.0856 134.626 33.9159C137.132 30.4082 139.721 26.9217 142.374 23.5196C145.349 19.6879 148.423 15.9478 151.595 12.2992C153.174 10.4608 154.774 8.64353 156.395 6.86854L158.859 4.18495C159.659 3.33972 160.711 1.81825 161.933 1.56469C166.017 0.740584 163.154 12.2991 162.564 14.1164V14.1798Z" fill="white" stroke="white"/>
<path fill-rule="evenodd" clip-rule="evenodd" d="M104.52 51.9194C98.7056 51.4503 92.86 52.2801 87.4034 54.3495C87.0666 54.4551 87.214 55.0045 87.5508 54.8777C92.9576 52.8154 98.7553 51.9923 104.52 52.4688C104.857 52.5111 104.857 51.9617 104.52 51.9194Z" fill="white" stroke="white"/>
</svg>