<svg width="75" height="70" viewBox="0 0 75 70" fill="none" xmlns="http://www.w3.org/2000/svg">
<g clip-path="url(#clip0_695_1565)">
<path d="M-0.000206498 49.5875C0.330238 48.6266 0.493625 47.6198 1.03702 46.7229C1.92994 45.1933 3.31594 44.0101 4.96932 43.366C7.73955 42.2806 10.5208 41.2189 13.2984 40.1463C13.6123 40.0237 13.9225 39.8846 14.2163 39.7564C14.3549 39.1025 14.3643 38.4279 14.2438 37.7705C12.7085 36.5466 11.6612 34.8171 11.29 32.8924C10.9944 32.5813 10.7062 32.5923 10.4547 32.5044C8.18932 31.7192 7.2292 29.2097 8.44633 27.1505C8.66664 26.7447 8.7696 26.2859 8.74374 25.8253C8.75842 24.1779 8.66296 22.5068 9.14027 20.8923C10.1885 17.3432 12.4906 14.971 15.9768 13.7391C16.6689 13.4939 17.2197 13.7391 17.4455 14.3047C17.6713 14.8703 17.4069 15.3847 16.6781 15.6611C15.1397 16.2413 13.8014 17.0851 12.7495 18.3664C11.1725 20.2846 10.7136 22.5251 10.8255 24.932C10.82 24.9972 10.8328 25.0626 10.8627 25.1209C10.8925 25.1791 10.9382 25.2278 10.9944 25.2615C11.0422 25.2615 11.1486 25.2707 11.178 25.2341C11.804 24.2511 12.7568 24.1761 13.8069 24.1944C16.6854 24.242 19.351 23.4494 21.8294 22.0125C23.4412 21.0772 23.9167 21.134 25.1815 22.4976C25.9728 23.3506 26.8668 24.1175 27.3698 25.1755C27.5809 25.159 27.5883 25.0327 27.5975 24.9119C27.9297 20.3634 25.5414 16.9277 21.7357 15.683C21.5723 15.6356 21.4132 15.5744 21.2603 15.5C20.7517 15.2273 20.4745 14.8209 20.682 14.2407C20.8894 13.6604 21.3869 13.4353 21.9781 13.5909C23.1607 13.9068 24.2768 14.4319 25.2733 15.1412C25.5046 15.3041 25.6956 15.5567 25.9287 15.5586C26.9439 13.9313 26.9935 12.1741 27.0173 10.3584C27.0908 4.5487 31.5132 0.0697098 37.3401 0.00747621C43.0531 -0.052927 47.0166 4.16981 47.7509 8.71835C47.9474 9.93191 47.8739 11.1473 47.8813 12.3627C47.8813 12.9576 47.9272 13.5122 48.2907 14.0229C48.6138 14.4786 48.6413 15.0662 48.8285 15.5732C49.1535 15.5494 49.3095 15.3407 49.5041 15.2071C50.8361 14.2476 52.3756 13.6139 53.9985 13.357C55.6214 13.1 57.2821 13.2272 58.8466 13.7282C60.4111 14.2291 61.8355 15.0899 63.0049 16.2409C64.1743 17.3919 65.0559 18.8009 65.5784 20.3542C66.1384 21.9796 66.109 23.6599 66.0906 25.3384C66.0657 26.0374 66.2226 26.731 66.5459 27.3518C67.5868 29.3268 66.5753 31.7338 64.4623 32.4769C64.2108 32.5666 63.9556 32.6453 63.6453 32.7478C63.3057 34.0017 62.9 35.2482 62.0445 36.2842C61.8962 36.5077 61.7191 36.7108 61.5176 36.8882C60.4455 37.6387 60.6677 38.6802 60.7833 39.7601C61.7159 40.1262 62.6191 40.4923 63.5278 40.8364C65.6886 41.6729 67.8548 42.4966 70.0156 43.3404C73.1144 44.5484 74.9723 47.2574 74.9888 50.5723C74.9888 52.0091 74.9888 53.446 74.9888 54.8829C74.9888 55.4595 74.8382 55.9518 74.2196 56.1513C73.5275 56.3747 72.9217 55.8768 72.9033 55.0147C72.8758 53.7004 72.8941 52.3844 72.8941 51.0702C72.8941 47.9274 71.7394 46.2397 68.8168 45.1104C67.227 44.4935 65.6353 43.8822 64.0602 43.28C63.6472 43.6058 63.537 44.0469 63.3406 44.4276C62.7899 45.4874 62.2666 46.5582 61.7324 47.6253C60.954 49.1739 60.4474 49.3935 58.83 48.9066C58.5657 49.0256 58.4629 49.2727 58.3178 49.5912C58.7584 52.2141 59.2082 54.8994 59.6635 57.5827C60.0184 59.6694 60.377 61.7548 60.7393 63.839C60.7963 64.1517 60.7759 64.4735 60.6799 64.7765C60.584 65.0795 60.4153 65.3546 60.1885 65.5779C59.5478 66.2698 58.9236 66.9763 58.1691 67.8183H66.1806C66.4027 67.4797 66.3219 67.1283 66.3219 66.797C66.3219 62.0721 66.3219 57.3472 66.3219 52.6223C66.3177 52.2825 66.3497 51.9432 66.4174 51.6101C66.5404 51.061 66.9149 50.7663 67.4822 50.8231C68.0494 50.8798 68.3413 51.2459 68.4001 51.795C68.4258 52.0604 68.4148 52.3295 68.4148 52.5985C68.4148 57.3222 68.4148 62.0471 68.4148 66.7732C68.4148 67.1063 68.345 67.4577 68.6075 67.8714C69.9678 67.9062 71.3833 67.9391 72.7693 67.8513C72.9731 67.2216 72.8904 66.7073 72.8941 66.2039C72.9051 64.3515 72.8941 62.501 72.8941 60.6505C72.8941 60.1361 72.9969 59.6749 73.5054 59.4186C74.2398 59.0525 74.9741 59.5815 74.9741 60.5443C74.9961 62.274 74.9741 64.0038 74.9741 65.7317C74.9741 66.2918 74.9741 66.8537 74.9741 67.4138C74.9539 68.9129 74.1168 69.8263 72.6243 69.9764C72.3581 70.002 72.0864 69.9928 71.8183 69.9928C61.1193 69.9928 50.4196 69.9928 39.7193 69.9928C38.9676 70.0213 38.2181 69.8968 37.5163 69.6268C36.5672 70.077 35.5098 69.9928 34.4634 69.9928C24.0562 69.9928 13.649 69.9763 3.24183 70.0093C1.67588 70.0093 0.522998 69.5663 -0.0148926 68.0105L-0.000206498 49.5875ZM36.279 67.8293C36.5378 67.4632 36.4993 67.1374 36.4993 66.8244C36.4993 61.5163 36.4993 56.2081 36.4993 50.8999C36.5287 49.9719 36.3545 49.0486 35.9889 48.1946C35.5263 47.1934 34.8728 46.3203 33.9035 45.8151C31.8841 44.7626 29.7105 44.1238 27.6434 43.2818C27.3276 43.5252 27.2358 43.8108 27.1055 44.067C26.4244 45.4124 25.7653 46.7724 25.0659 48.1104C24.561 49.0805 23.8561 49.3386 22.8042 49.0091C22.6683 48.967 22.527 48.9377 22.4076 48.9066C21.9634 49.2141 21.8918 49.6168 21.9725 50.0854C22.6665 54.1617 23.2833 58.2526 24.0874 62.307C24.4325 64.0495 24.2912 65.4498 22.8446 66.6139C22.4774 66.9086 22.0607 67.2546 21.956 67.811H29.8096C29.9932 67.3973 29.9399 67.0514 29.9399 66.7128C29.9399 61.9647 29.9399 57.216 29.9399 52.4668C29.9254 52.1991 29.9359 51.9307 29.9712 51.665C29.9964 51.444 30.098 51.2386 30.2584 51.084C30.4188 50.9294 30.6281 50.8352 30.8505 50.8176C31.3811 50.7645 31.7372 51.0189 31.9189 51.5168C32.0206 51.8685 32.0597 52.2352 32.0346 52.6004C32.0346 57.3252 32.0346 62.0495 32.0346 66.7732C32.0346 67.1063 31.9612 67.4541 32.1778 67.833L36.279 67.8293ZM53.3042 67.8293C52.6397 67.0971 52.1477 66.4656 51.5749 65.9257C50.7984 65.1935 50.6221 64.3534 50.8002 63.3393C51.5731 58.9317 52.3147 54.5168 53.0711 50.1074C53.1555 49.6132 53.0986 49.1922 52.6378 48.9121C50.9746 49.377 50.5046 49.1684 49.7244 47.6199C49.1351 46.4447 48.5532 45.266 47.9529 44.0963C47.8134 43.8236 47.7417 43.4905 47.3599 43.2964L42.5593 45.147C39.8056 46.2178 38.5591 47.9768 38.548 50.9457C38.5315 56.2301 38.548 61.5144 38.548 66.7988C38.548 67.1337 38.4948 67.487 38.8032 67.8586C40.1641 67.925 41.5275 67.9202 42.8879 67.8439C43.0623 67.4046 43.009 67.0605 43.0109 66.7219C43.0109 62.0227 43.0109 57.3246 43.0109 52.6278C42.9803 52.2387 43.0246 51.8473 43.1412 51.4747C43.2161 51.2678 43.3574 51.0913 43.5432 50.9726C43.7289 50.8539 43.9488 50.7996 44.1686 50.8181C44.3885 50.8367 44.596 50.9271 44.7591 51.0752C44.9222 51.2234 45.0317 51.421 45.0707 51.6376C45.1102 51.9268 45.1213 52.2193 45.1037 52.5107C45.1037 57.2612 45.1037 62.0098 45.1037 66.7567C45.1037 67.11 45.0101 67.4888 45.2873 67.833L53.3042 67.8293ZM16.8819 67.8293C16.1255 66.9891 15.5068 66.2826 14.8625 65.5944C14.4017 65.0965 14.174 64.5364 14.2897 63.861C14.5449 62.3491 14.8111 60.8408 15.0662 59.3307C15.617 56.0708 16.1677 52.809 16.7185 49.6058C16.4835 49.1592 16.4835 49.1592 16.1549 48.8993C14.6862 49.41 14.0786 49.1647 13.381 47.7846C13.0946 47.2208 12.81 46.6558 12.5273 46.0896C12.0592 45.158 11.5947 44.2281 11.134 43.3074C11.0059 43.3239 10.879 43.3483 10.7539 43.3806C9.15863 43.9883 7.56148 44.5942 5.96983 45.211C3.42357 46.1995 2.15319 48.0335 2.14952 50.7626C2.14218 56.1465 2.14218 61.5291 2.14952 66.9104C2.14952 67.1941 2.07976 67.4962 2.3331 67.8128H6.50038C6.68396 67.4046 6.63623 67.0587 6.63623 66.7146C6.63623 61.9885 6.63623 57.2636 6.63623 52.54C6.62454 52.2726 6.63128 52.0047 6.65642 51.7383C6.73353 51.1891 7.04378 50.8414 7.61288 50.8084C7.84952 50.7817 8.08733 50.8477 8.27607 50.9925C8.46482 51.1373 8.58972 51.3496 8.62441 51.5845C8.69516 51.9172 8.72841 52.2567 8.72354 52.5967C8.72354 57.3204 8.72354 62.0446 8.72354 66.7695C8.72354 67.1045 8.65562 67.4504 8.86306 67.8348L16.8819 67.8293ZM13.291 26.325C13.1901 28.0895 13.2304 29.7881 13.2635 31.4849C13.2674 32.1184 13.3721 32.7474 13.5737 33.3482C13.996 34.5948 14.827 35.6633 15.9326 36.3815C17.0383 37.0998 18.3543 37.4259 19.6686 37.3074C22.6646 37.0767 24.8309 34.9279 25.132 32.142C25.3156 30.4397 25.0769 28.7265 25.2605 27.0388C25.4441 25.3512 24.2783 24.5952 23.2796 23.5922C20.2736 25.4203 16.8119 26.3674 13.291 26.325ZM31.5114 13.0985C31.5114 15.1394 31.3645 17.0723 31.5444 18.9741C31.8308 21.9851 34.3789 24.0772 37.5016 24.0992C38.9205 24.1239 40.2985 23.6253 41.3712 22.699C42.4439 21.7727 43.1357 20.484 43.3138 19.0802C43.5965 16.9515 43.3854 14.8008 43.4184 12.661C43.4209 12.5153 43.3743 12.3729 43.2863 12.2565C42.7245 11.625 42.1462 11.0064 41.5404 10.3456C38.5283 12.1958 35.0488 13.1497 31.5114 13.0948V13.0985ZM59.7571 23.5794C58.2366 24.4813 56.6067 25.1857 54.9069 25.6752C53.2161 26.1474 51.4721 26.281 49.6547 26.3652C49.695 28.4006 49.4949 30.3482 49.7666 32.2829C50.1852 35.2793 52.7498 37.408 55.8046 37.3513C58.7584 37.2964 61.3285 35.0725 61.5488 32.1383C61.7104 29.962 61.5801 27.7618 61.5801 25.5251L59.7571 23.5794ZM47.4572 25.4592C48.03 24.6758 48.5936 24.1596 49.5151 24.2017C52.8343 24.3573 55.8817 23.4695 58.7125 21.7618C59.7204 21.1541 60.4474 21.2712 61.2661 22.1443C62.1749 23.1144 63.1864 24.004 63.8363 25.2231C64.7542 23.27 63.3571 19.2578 61.134 17.334C59.7541 16.1485 58.025 15.4422 56.2075 15.3217C54.39 15.2012 52.5824 15.673 51.0572 16.6659C48.1493 18.5677 46.7816 21.954 47.4627 25.4519L47.4572 25.4592ZM45.6636 12.0973C46.2915 8.21499 44.5438 4.75553 41.3366 3.05509C39.7181 2.19475 37.8598 1.89181 36.0507 2.19337C34.2416 2.49493 32.5832 3.3841 31.3333 4.72259C29.4975 6.67014 28.385 10.611 29.2662 12.0643C29.4498 12.0826 29.5269 11.9508 29.604 11.8282C29.9712 11.2278 30.5384 10.9972 31.2195 11.0192C34.5102 11.1314 37.7597 10.2628 40.5527 8.52433C41.5569 7.91297 42.205 8.03561 43.0292 8.9142C43.949 9.86784 44.9587 10.7666 45.6691 12.0845L45.6636 12.0973ZM27.3441 32.6929C27.0577 33.0224 27.0394 33.3537 26.9568 33.6521C26.6116 34.9004 26.0517 36.0737 25.0696 36.89C24.0525 37.7338 24.2948 38.7076 24.3352 39.7693L33.6611 43.3623C33.7286 43.1921 33.7856 43.0178 33.8319 42.8407C34.188 40.7796 34.5411 38.718 34.8911 36.6558C34.9664 36.2146 34.7534 35.9236 34.4175 35.6893C32.7469 36.178 32.3026 35.9803 31.5114 34.408C31.0837 33.5605 30.6651 32.7094 30.2263 31.8656C30.1217 31.6643 30.0758 31.3933 29.7233 31.3256C29.0984 32.0247 28.2641 32.5042 27.3441 32.6929ZM45.0853 31.3238C44.4355 32.6051 43.87 33.7692 43.2716 34.9059C42.7741 35.8522 42.0379 36.1414 41.0815 35.8211C40.9254 35.768 40.7804 35.6472 40.5509 35.7204C40.3855 35.8517 40.2625 36.0286 40.1972 36.2291C40.132 36.4296 40.1273 36.6448 40.1837 36.8479C40.393 37.9224 40.5289 39.0096 40.7345 40.0823C40.9401 41.1549 41.0099 42.244 41.3789 43.377L50.7304 39.7601C50.7506 39.028 50.8131 38.4276 50.6882 37.765C49.9197 37.1435 49.2575 36.4017 48.7276 35.5685C48.1622 34.7045 47.9051 33.7125 47.6132 32.6911C46.6439 32.5483 45.8637 32.056 45.0853 31.3238ZM58.6795 64.1301C57.8864 59.479 57.108 54.9177 56.3315 50.3709C55.8505 50.3105 55.5182 50.2245 55.1768 50.4625C55.1334 50.565 55.0984 50.6709 55.0721 50.7791C54.3378 55.0415 53.609 59.3045 52.8857 63.5681C52.8453 63.8042 52.781 64.077 52.9536 64.2765C53.8402 65.3419 54.7827 66.3598 55.7771 67.3259L58.6795 64.1301ZM18.6938 50.4405C17.9228 54.9689 17.1425 59.5559 16.3623 64.1356L19.2996 67.3534C20.1367 66.4492 20.8729 65.609 21.6586 64.8183C22.1213 64.3552 22.2314 63.8848 22.1157 63.2441C21.565 60.2057 21.0767 57.1599 20.5571 54.1178C20.346 52.8804 20.1239 51.6431 19.9164 50.468C19.485 50.2538 19.1583 50.2703 18.6938 50.4405ZM36.905 37.2287C36.4974 39.6393 36.0826 42.0865 35.6677 44.5503C36.4387 45.0994 36.905 45.8096 37.5402 46.4868C38.0995 45.7737 38.7087 45.1009 39.3631 44.4734C38.9446 42.0261 38.5297 39.6009 38.1221 37.214C37.727 37.0857 37.3005 37.0908 36.9087 37.2287H36.905ZM34.7626 25.796C34.579 26.2902 34.5258 26.6892 34.7516 26.9839C35.6199 28.1151 36.5323 29.2152 37.5053 30.4269C38.3993 29.3287 39.2016 28.3348 40.0295 27.3573C40.4334 26.8778 40.4922 26.3799 40.2645 25.7338C38.4379 26.336 36.6113 26.2847 34.7663 25.796H34.7626ZM19.3033 43.6552C20.1973 42.557 20.9702 41.5576 21.7926 40.6058C22.2112 40.1244 22.2534 39.6302 22.0882 38.9584C20.2285 39.5569 18.367 39.5075 16.5349 39.0133C16.3513 39.524 16.3036 39.9285 16.5624 40.2507C17.4326 41.3526 18.3266 42.4325 19.307 43.6552H19.3033ZM52.9866 39.0042C52.8031 39.4508 52.737 39.8718 52.9444 40.1482C53.8128 41.3086 54.7398 42.4233 55.6981 43.6259C56.7023 42.5189 57.6449 41.358 58.5216 40.1482C58.7511 39.8333 58.718 39.416 58.4518 38.9419C56.6509 39.5771 54.8096 39.5039 52.9866 39.0042ZM28.8495 19.5342C29.828 21.749 29.7086 24.0699 29.7086 26.3726C29.7086 26.7881 29.9528 27.0937 30.2924 27.3628C31.0433 27.1047 31.8143 26.8906 32.4642 26.4824C32.6569 25.3054 32.6276 24.7051 32.2659 24.3957C30.9171 23.2523 29.9761 21.704 29.5838 19.9826C29.5251 19.7081 29.4516 19.3786 28.8495 19.5342ZM23.3531 46.8932C24.1149 45.3685 24.8217 43.9645 25.523 42.5441C24.9033 42.1824 24.2306 41.9199 23.5293 41.7662L20.8252 45.1012L23.3531 46.8932ZM51.4409 41.7296C50.7708 42.0023 50.1246 42.1158 49.5353 42.5881L51.6851 46.8932L54.1707 45.1323C53.3189 43.9243 52.4065 42.8626 51.4464 41.7296H51.4409ZM57.2714 45.0756C58.0715 45.7226 58.9122 46.3181 59.7883 46.8584C60.5226 45.3666 61.2294 43.9645 61.9399 42.5405C61.3214 42.1794 60.6489 41.9192 59.948 41.7699L57.2714 45.0756ZM43.7489 29.3012C43.1126 28.973 42.4414 28.717 41.7478 28.5379L39.0712 31.8491C39.8635 32.5057 40.7009 33.1063 41.5771 33.6466L43.7489 29.3012ZM15.2682 46.8895L17.7906 45.1085L15.0516 41.7351C14.3338 41.9895 13.6967 42.1287 13.1111 42.5863L15.2682 46.8895ZM31.3058 29.3323L33.4739 33.6667L36.0018 31.8876L33.2921 28.5507C32.5924 28.7039 31.9218 28.9678 31.3058 29.3323ZM42.5593 26.4934C43.2132 26.8453 43.9081 27.1158 44.6282 27.2987C45.1367 26.9656 45.1973 26.5044 45.19 25.9973C45.1569 23.885 45.0908 21.7673 45.9133 19.752C45.9427 19.6806 45.8968 19.569 45.8857 19.4866C45.3222 19.3932 45.3258 19.8234 45.2542 20.1217C44.9256 21.4744 44.3565 22.7392 43.3101 23.6398C42.3408 24.4744 42.4161 25.4189 42.5593 26.4934ZM20.1753 48.1635C20.3791 47.9951 20.5535 47.8303 20.5223 47.5265C20.172 47.1577 19.7522 46.8616 19.2868 46.6552C18.8297 46.9316 18.3505 47.1623 18.0568 47.6089C18.1148 47.8441 18.264 48.0469 18.4717 48.1726C19.0357 48.2693 19.6124 48.2662 20.1753 48.1635ZM54.492 47.5576C54.5044 47.6876 54.5487 47.8126 54.6211 47.9215C54.6934 48.0304 54.7916 48.1198 54.9069 48.1818C55.478 48.2739 56.0608 48.2653 56.6289 48.1562C56.8125 47.9731 56.996 47.8102 56.952 47.5119C56.5909 47.1613 56.1748 46.872 55.7202 46.6552C55.26 46.8805 54.8441 47.1861 54.492 47.5576ZM38.3755 35.0011C38.5591 34.7887 38.761 34.635 38.7426 34.3147C38.3975 33.9291 37.9616 33.6354 37.4741 33.4599C37.0335 33.7161 36.6149 33.9522 36.2918 34.3403C36.3038 34.4801 36.3518 34.6144 36.4313 34.7302C36.5107 34.846 36.6189 34.9393 36.7453 35.0011H38.3755ZM27.39 30.4855C28.1812 30.0864 28.5025 29.5446 28.4236 28.8381C28.3612 28.2615 28.1262 27.7399 27.3423 27.5806C27.2725 28.5416 27.2119 29.4366 27.39 30.4855ZM11.1229 30.4287C11.2044 29.4722 11.1976 28.5103 11.1027 27.555C10.3152 27.9119 10.0013 28.397 10.0361 29.0962C10.0655 29.7204 10.3335 30.1963 11.1229 30.4287ZM63.7757 30.3848C64.5596 30.1304 64.8882 29.6691 64.8404 28.9058C64.7982 28.2652 64.543 27.7618 63.7757 27.5642V30.3848ZM29.3011 14.4054C28.519 14.6598 28.2198 15.1614 28.2437 15.8496C28.2675 16.4921 28.5337 16.9973 29.3011 17.2077V14.4054ZM45.581 17.2041C46.3704 16.9753 46.6403 16.4335 46.6439 15.7727C46.6476 15.1119 46.3576 14.5848 45.581 14.3468V17.2041ZM47.4756 30.383V27.6063C46.7266 27.9302 46.3888 28.4354 46.4438 29.1255C46.4916 29.713 46.7412 30.231 47.4756 30.3903V30.383Z" fill="#333333"/>
</g>
<defs>
<clipPath id="clip0_695_1565">
<rect width="75" height="70" fill="white"/>
</clipPath>
</defs>
</svg>
